REM DIRINDEX 1\2,1\3,1\4,1\5
REM DIRNAME folder01,folder02,folder03,folder04,folder05
TITLE ""
FILE "Round-12-294-295.mp3" MP3
  TRACK 01 AUDIO
    TITLE "0:"
    INDEX 01 00:00:00
  TRACK 02 AUDIO
    TITLE "2:cjc093_3261"
    INDEX 01 00:00:01
  TRACK 03 AUDIO
    TITLE "0:"
    INDEX 01 00:01:24
  TRACK 04 AUDIO
    TITLE "3:cjc093_3262"
    INDEX 01 00:01:46
  TRACK 05 AUDIO
    TITLE "0:"
    INDEX 01 00:03:68
  TRACK 06 AUDIO
    TITLE "4:cjc093_3263"
    INDEX 01 00:04:31
  TRACK 07 AUDIO
    TITLE "0:"
    INDEX 01 00:08:26
  TRACK 08 AUDIO
    TITLE "2:cjc093_3264"
    INDEX 01 00:09:38
  TRACK 09 AUDIO
    TITLE "0:"
    INDEX 01 00:10:16
  TRACK 10 AUDIO
    TITLE "3:cjc093_3265"
    INDEX 01 00:10:66
  TRACK 11 AUDIO
    TITLE "0:"
    INDEX 01 00:13:14
  TRACK 12 AUDIO
    TITLE "4:cjc093_3266"
    INDEX 01 00:13:30
  TRACK 13 AUDIO
    TITLE "0:"
    INDEX 01 00:16:40
  TRACK 14 AUDIO
    TITLE "2:cjc093_3267"
    INDEX 01 00:17:53
  TRACK 15 AUDIO
    TITLE "0:"
    INDEX 01 00:18:62
  TRACK 16 AUDIO
    TITLE "3:cjc093_3268"
    INDEX 01 00:19:16
  TRACK 17 AUDIO
    TITLE "0:"
    INDEX 01 00:20:49
  TRACK 18 AUDIO
    TITLE "4:cjc093_3269"
    INDEX 01 00:20:73
  TRACK 19 AUDIO
    TITLE "0:"
    INDEX 01 00:25:31
  TRACK 20 AUDIO
    TITLE "2:cjc093_3270"
    INDEX 01 00:26:40
  TRACK 21 AUDIO
    TITLE "0:"
    INDEX 01 00:27:49
  TRACK 22 AUDIO
    TITLE "3:cjc093_3271"
    INDEX 01 00:28:10
  TRACK 23 AUDIO
    TITLE "0:"
    INDEX 01 00:29:31
  TRACK 24 AUDIO
    TITLE "4:cjc093_3272"
    INDEX 01 00:29:68
  TRACK 25 AUDIO
    TITLE "0:"
    INDEX 01 00:34:14
  TRACK 26 AUDIO
    TITLE "2:cjc093_3273"
    INDEX 01 00:35:23
  TRACK 27 AUDIO
    TITLE "0:"
    INDEX 01 00:36:29
  TRACK 28 AUDIO
    TITLE "3:cjc093_3274"
    INDEX 01 00:36:52
  TRACK 29 AUDIO
    TITLE "0:"
    INDEX 01 00:39:05
  TRACK 30 AUDIO
    TITLE "4:cjc093_3275"
    INDEX 01 00:39:19
  TRACK 31 AUDIO
    TITLE "0:"
    INDEX 01 00:42:74
  TRACK 32 AUDIO
    TITLE "2:cjc093_3276"
    INDEX 01 00:44:09
  TRACK 33 AUDIO
    TITLE "0:"
    INDEX 01 00:45:22
  TRACK 34 AUDIO
    TITLE "3:cjc093_3277"
    INDEX 01 00:45:41
  TRACK 35 AUDIO
    TITLE "0:"
    INDEX 01 00:46:56
  TRACK 36 AUDIO
    TITLE "4:cjc093_3278"
    INDEX 01 00:47:27
  TRACK 37 AUDIO
    TITLE "0:"
    INDEX 01 00:51:13
  TRACK 38 AUDIO
    TITLE "2:cjc093_3279"
    INDEX 01 00:52:24
  TRACK 39 AUDIO
    TITLE "0:"
    INDEX 01 00:53:53
  TRACK 40 AUDIO
    TITLE "3:cjc093_3280"
    INDEX 01 00:54:29
  TRACK 41 AUDIO
    TITLE "0:"
    INDEX 01 00:56:67
  TRACK 42 AUDIO
    TITLE "4:cjc093_3281"
    INDEX 01 00:57:09
  TRACK 43 AUDIO
    TITLE "0:"
    INDEX 01 01:00:13
  TRACK 44 AUDIO
    TITLE "2:cjc093_3282"
    INDEX 01 01:01:25
  TRACK 45 AUDIO
    TITLE "0:"
    INDEX 01 01:02:26
  TRACK 46 AUDIO
    TITLE "3:cjc093_3283"
    INDEX 01 01:02:69
  TRACK 47 AUDIO
    TITLE "0:"
    INDEX 01 01:05:17
  TRACK 48 AUDIO
    TITLE "4:cjc093_3284"
    INDEX 01 01:05:60
  TRACK 49 AUDIO
    TITLE "0:"
    INDEX 01 01:08:52
  TRACK 50 AUDIO
    TITLE "3:cjc093_3285"
    INDEX 01 01:09:67
  TRACK 51 AUDIO
    TITLE "0:"
    INDEX 01 01:11:02
  TRACK 52 AUDIO
    TITLE "4:cjc093_3286"
    INDEX 01 01:11:47
  TRACK 53 AUDIO
    TITLE "0:"
    INDEX 01 01:14:37
  TRACK 54 AUDIO
    TITLE "2:cjc093_3287"
    INDEX 01 01:15:46
  TRACK 55 AUDIO
    TITLE "0:"
    INDEX 01 01:16:58
  TRACK 56 AUDIO
    TITLE "3:cjc093_3288"
    INDEX 01 01:17:06
  TRACK 57 AUDIO
    TITLE "0:"
    INDEX 01 01:18:13
  TRACK 58 AUDIO
    TITLE "4:cjc093_3289"
    INDEX 01 01:18:35
  TRACK 59 AUDIO
    TITLE "0:"
    INDEX 01 01:20:38
  TRACK 60 AUDIO
    TITLE "2:cjc093_3290"
    INDEX 01 01:21:49
  TRACK 61 AUDIO
    TITLE "0:"
    INDEX 01 01:22:52
  TRACK 62 AUDIO
    TITLE "3:cjc093_3291"
    INDEX 01 01:23:18
  TRACK 63 AUDIO
    TITLE "0:"
    INDEX 01 01:24:20
  TRACK 64 AUDIO
    TITLE "4:cjc093_3292"
    INDEX 01 01:24:49
  TRACK 65 AUDIO
    TITLE "0:"
    INDEX 01 01:30:26
